<svg xmlns="http://www.w3.org/2000/svg" viewBox="0 0 1026.78 378.23"><defs><style>.cls-1{fill:#ff7d00;}.cls-2{fill:#fff;}</style></defs><rect class="cls-1" width="1026.78" height="378.23"/><path class="cls-2" d="M327.48,148.19h20.25v71.59A10.13,10.13,0,0,1,337.6,229.9c-2.63,0-5-1.34-7.16-3l-67.53-48.81v51.82H242.67V158.36a10.24,10.24,0,0,1,6.25-9.43c3.78-1.57,7.67-.24,11,2.19L327.48,200Zm123,38.21a25.22,25.22,0,0,0-18-7.43H378.33a5.24,5.24,0,1,1,0-10.48h64.11a10.12,10.12,0,0,0,0-20.25H378.33a25.49,25.49,0,1,0,0,51h54.09v0a5.23,5.23,0,1,1,0,10.47H363a10.12,10.12,0,1,0,0,20.25h69.45a25.48,25.48,0,0,0,18-43.5Zm-212.59,2.67A40.88,40.88,0,0,1,197,229.94H132.69V148.19H197A40.88,40.88,0,0,1,237.84,189.06Zm-20.34,0A20.53,20.53,0,0,0,197,168.53H153V209.6H197a20.53,20.53,0,0,0,20.53-20.53Z"/><path class="cls-2" d="M499.81,211.57a13.28,13.28,0,0,0-8.33-2.39h-4.2v-4.47h8.93a3.79,3.79,0,0,0,3-1.27,3.85,3.85,0,0,0,1-2.7,4.13,4.13,0,0,0-1-2.74,3.9,3.9,0,0,0-3-1.22H483.28a4.52,4.52,0,0,0-3.1,1.09,4.14,4.14,0,0,0-1.25,3.14v24.66a4.22,4.22,0,0,0,1.32,3.17,4.52,4.52,0,0,0,3.07,1.11h8.94a11.31,11.31,0,0,0,7.9-2.7,9.94,9.94,0,0,0,3.09-7.78A9.55,9.55,0,0,0,499.81,211.57Zm-5.17,7.82a2.61,2.61,0,0,1-.86,2.12,3.29,3.29,0,0,1-2.3.78h-4.2v-5.44H491C494.2,216.84,494.64,218.13,494.64,219.38Z"/><path class="cls-2" d="M535.56,196.78a4,4,0,0,0-4.17,4.29v24.58a4.29,4.29,0,0,0,1.21,3.18,4.51,4.51,0,0,0,6,0,4.28,4.28,0,0,0,1.18-3.16V201.07a4.28,4.28,0,0,0-1.21-3.18A4.22,4.22,0,0,0,535.56,196.78Z"/><path class="cls-2" d="M526.24,211.42a12.85,12.85,0,0,0-8.35-2.52h-3.55v-7.8a4.34,4.34,0,0,0-1.21-3.21,4.49,4.49,0,0,0-6,0A4.33,4.33,0,0,0,506,201.1v24.6a4.17,4.17,0,0,0,1.32,3.14,4.55,4.55,0,0,0,3.07,1.1h8.29a11.19,11.19,0,0,0,7.92-2.78,10.25,10.25,0,0,0,3.07-7.83A9.65,9.65,0,0,0,526.24,211.42Zm-5.19,7.83a3,3,0,0,1-.9,2.27,3.06,3.06,0,0,1-2.26.82h-3.55v-5.83h3a4.24,4.24,0,0,1,2.84.83A2.31,2.31,0,0,1,521.06,219.25Z"/><path class="cls-2" d="M564.54,198a3.67,3.67,0,0,0-2.84-1.21h-16a3.67,3.67,0,0,0-2.84,1.21,3.88,3.88,0,0,0-1,2.72,3.93,3.93,0,0,0,.9,2.63,3.59,3.59,0,0,0,3,1.3h3.81v21a4.34,4.34,0,0,0,1.21,3.21,4.49,4.49,0,0,0,6,0,4.33,4.33,0,0,0,1.18-3.18v-21h3.81a3.58,3.58,0,0,0,3-1.29,3.94,3.94,0,0,0,.91-2.65A3.88,3.88,0,0,0,564.54,198Z"/><path class="cls-2" d="M581.12,196.78a15,15,0,0,0-11.44,4.81,17.92,17.92,0,0,0,0,23.55,16.06,16.06,0,0,0,22.93,0A16.82,16.82,0,0,0,597,213.36a16.57,16.57,0,0,0-4.45-11.68A14.88,14.88,0,0,0,581.12,196.78Zm-5.38,10.3a6.84,6.84,0,0,1,10.76,0,11.72,11.72,0,0,1,0,12.61,7,7,0,0,1-10.85,0,11.72,11.72,0,0,1,0-12.6Z"/><path class="cls-2" d="M619.15,211.63a7.5,7.5,0,0,0,2.75-6.18,8.16,8.16,0,0,0-2.69-6.31,9.08,9.08,0,0,0-6.39-2.35h-8.33a4.52,4.52,0,0,0-3.1,1.09,4.14,4.14,0,0,0-1.25,3.14v24.66a4.22,4.22,0,0,0,1.32,3.17,4.52,4.52,0,0,0,3.07,1.11h8.94a11.31,11.31,0,0,0,7.9-2.7,9.94,9.94,0,0,0,3.09-7.78,8.16,8.16,0,0,0-2.15-5.59A8.47,8.47,0,0,0,619.15,211.63Zm-3.3,7.75a2.61,2.61,0,0,1-.86,2.12,3.3,3.3,0,0,1-2.3.78h-4.2v-5.44h3.68C615.41,216.84,615.85,218.13,615.85,219.38Zm-7.36-10.21v-4.73H611a2.89,2.89,0,0,1,1.89.58,1.9,1.9,0,0,1,.7,1.61,2.4,2.4,0,0,1-.66,1.87,2.64,2.64,0,0,1-1.93.67Z"/><path class="cls-2" d="M654.14,224.3,645.64,201c-1-2.73-2.86-4.17-5.51-4.17s-4.44,1.4-5.51,4.16l-8.77,23.47-.15.47a4.14,4.14,0,0,0-.17,1.15,3.62,3.62,0,0,0,1.27,2.83,4.29,4.29,0,0,0,2.86,1.08,3.94,3.94,0,0,0,4-2.91l1.1-3.36h10.73l1.1,3.4a3.94,3.94,0,0,0,4,2.87,3.88,3.88,0,0,0,2.71-1,3.57,3.57,0,0,0,1.21-2.73,4.68,4.68,0,0,0-.1-.77A4.55,4.55,0,0,0,654.14,224.3Zm-11.19-8.37h-5.72l2.89-8.73Z"/><path class="cls-2" d="M675.94,196.78h-7.64c-7.67,0-11.73,3.73-11.73,10.78a8.4,8.4,0,0,0,2.63,6.34,10.69,10.69,0,0,0,4.54,2.45l-6.28,6.75a3.78,3.78,0,0,0-1.11,2.55,4.25,4.25,0,0,0,1.16,2.94,4,4,0,0,0,4.7,1,4.06,4.06,0,0,0,1.54-1.12l8.09-9.85v7a4.34,4.34,0,0,0,1.21,3.2,4.49,4.49,0,0,0,6,0,4.33,4.33,0,0,0,1.18-3.18V201.1C680.2,198.31,678.69,196.78,675.94,196.78ZM666,205.41a3.3,3.3,0,0,1,2.3-.77h3.55v5.87h-3.55a3.15,3.15,0,0,1-2.28-.8,2.84,2.84,0,0,1-.84-2.16A2.72,2.72,0,0,1,666,205.41Z"/><path class="cls-2" d="M715.82,196.78h-16A3.67,3.67,0,0,0,697,198a3.89,3.89,0,0,0-1,2.72,3.93,3.93,0,0,0,.9,2.63,3.6,3.6,0,0,0,3,1.3h3.81v21a4.35,4.35,0,0,0,1.21,3.21,4.49,4.49,0,0,0,6,0,4.34,4.34,0,0,0,1.18-3.18v-21h3.81a3.59,3.59,0,0,0,3-1.29,4,4,0,0,0,.91-2.65,3.89,3.89,0,0,0-1-2.72A3.67,3.67,0,0,0,715.82,196.78Z"/><path class="cls-2" d="M737.21,222H730.1v-4.82h6.2a4,4,0,0,0,3.06-1.27,3.84,3.84,0,0,0,1-2.7,3.94,3.94,0,0,0-1-2.74,4,4,0,0,0-3.06-1.22h-6.2v-4.56h6.72a3.73,3.73,0,0,0,3-1.27,3.84,3.84,0,0,0,1-2.7,4.13,4.13,0,0,0-1-2.74,3.91,3.91,0,0,0-3-1.22H726.05c-2.78,0-4.3,1.69-4.3,4.75v24.18a4,4,0,0,0,1.25,3.05,4.25,4.25,0,0,0,3,1.17h11.2a3.79,3.79,0,0,0,3-1.27,3.84,3.84,0,0,0,1-2.7,4.13,4.13,0,0,0-1-2.74A3.9,3.9,0,0,0,737.21,222Z"/><path class="cls-2" d="M770,223.24l-8.19-11,6.61-9a4,4,0,0,0,.89-2.47,3.74,3.74,0,0,0-1.25-3,4.33,4.33,0,0,0-6.54.88l-4.63,6.55-4.62-6.54a4.33,4.33,0,0,0-6.53-.91,3.75,3.75,0,0,0-1.27,3,3.94,3.94,0,0,0,.87,2.45l6.63,9-8.2,11a4.78,4.78,0,0,0-.58,1.15,4.37,4.37,0,0,0-.32,1.59,3.64,3.64,0,0,0,1.25,2.88,4.21,4.21,0,0,0,3,1.07,4.14,4.14,0,0,0,3.44-1.81l6.37-8.83,6.37,8.84a4.13,4.13,0,0,0,3.43,1.81,4.39,4.39,0,0,0,3-1.07,3.76,3.76,0,0,0,1.21-2.88,5.38,5.38,0,0,0-.28-1.58A4.92,4.92,0,0,0,770,223.24Z"/><path class="cls-2" d="M797.68,196.78a4,4,0,0,0-4.17,4.29v8.26H781.71v-8.26a4.28,4.28,0,0,0-1.21-3.18,4.52,4.52,0,0,0-6,0,4.27,4.27,0,0,0-1.18,3.16v24.58a4.29,4.29,0,0,0,1.21,3.18,4.51,4.51,0,0,0,6,0,4.28,4.28,0,0,0,1.18-3.16v-8.52H793.5v8.52a4.29,4.29,0,0,0,1.21,3.18,4.51,4.51,0,0,0,6,0,4.28,4.28,0,0,0,1.18-3.16V201.07a4.28,4.28,0,0,0-1.21-3.18A4.22,4.22,0,0,0,797.68,196.78Z"/><path class="cls-2" d="M830.72,196.78a4.23,4.23,0,0,0-3.46,1.79l-12.5,16.27V201.07a4.29,4.29,0,0,0-1.21-3.18,4.52,4.52,0,0,0-6,0,4.28,4.28,0,0,0-1.18,3.16v24.58a4.29,4.29,0,0,0,1.21,3.18,4.36,4.36,0,0,0,6.43-.67l12.5-16.08v13.58a4.29,4.29,0,0,0,1.21,3.18,4.52,4.52,0,0,0,6,0,4.28,4.28,0,0,0,1.18-3.16V201.07a4.29,4.29,0,0,0-1.21-3.18A4.22,4.22,0,0,0,830.72,196.78Z"/><path class="cls-2" d="M854.24,212.35l7.56-7.42c1.63-1.63,2.39-2.93,2.39-4.11a3.85,3.85,0,0,0-1.29-2.92,4,4,0,0,0-4.84-.58,5.14,5.14,0,0,0-1.18,1l-9.09,9.64v-7a3.91,3.91,0,0,0-1.21-3,4.23,4.23,0,0,0-3-1.11,4.1,4.1,0,0,0-4.17,4.12v25a3.8,3.8,0,0,0,1.21,2.92,4.22,4.22,0,0,0,3,1.11,4.09,4.09,0,0,0,3-1.18,3.89,3.89,0,0,0,1.18-2.85v-8.69l9.65,10.4c1.45,1.54,2.78,2.32,4,2.32a4.6,4.6,0,0,0,2.92-.94,3.63,3.63,0,0,0,1.38-3c0-1.18-.7-2.5-2.08-3.92Z"/><path class="cls-2" d="M896.11,225.43a4.63,4.63,0,0,0-.3-1.13L887.31,201c-1-2.73-2.86-4.17-5.51-4.17s-4.44,1.4-5.51,4.16l-8.77,23.47-.15.47a4.14,4.14,0,0,0-.17,1.15,3.62,3.62,0,0,0,1.27,2.83,4.29,4.29,0,0,0,2.86,1.08,3.93,3.93,0,0,0,4-2.91l1.1-3.36h10.73l1.1,3.4a3.94,3.94,0,0,0,4,2.87,3.88,3.88,0,0,0,2.71-1,3.57,3.57,0,0,0,1.21-2.73A4.71,4.71,0,0,0,896.11,225.43Zm-11.5-9.5H878.9l2.89-8.73Z"/><path class="cls-2" d="M542.49,152.48a4.28,4.28,0,0,0-1.21-3.18,4.36,4.36,0,0,0-6.43.68l-12.5,16.27V152.48a4.28,4.28,0,0,0-1.21-3.18,4.52,4.52,0,0,0-6,0,4.27,4.27,0,0,0-1.18,3.16v24.58a4.29,4.29,0,0,0,1.21,3.18,4.36,4.36,0,0,0,6.43-.67l12.5-16.08v13.58a4.29,4.29,0,0,0,1.21,3.18,4.52,4.52,0,0,0,6,0,4.28,4.28,0,0,0,1.18-3.16Z"/><path class="cls-2" d="M557.27,177.54a13.44,13.44,0,0,0,1.64-.14l.53-.07a4.17,4.17,0,0,0,8.33,0l.53.08a13.44,13.44,0,0,0,1.64.14,11.18,11.18,0,0,0,8.67-3.85,13,13,0,0,0,3.36-9.05,13.25,13.25,0,0,0-3.31-9.09,11.23,11.23,0,0,0-8.71-3.85,13.8,13.8,0,0,0-1.63.13l-.57.05a4.09,4.09,0,0,0-1.17-2.58,4.52,4.52,0,0,0-6,0,4.07,4.07,0,0,0-1.15,2.56l-.51,0a14.48,14.48,0,0,0-1.68-.14,11.23,11.23,0,0,0-8.71,3.86,13.25,13.25,0,0,0-3.31,9.09,12.88,12.88,0,0,0,3.4,9A11.14,11.14,0,0,0,557.27,177.54Zm-3.42-12.9a5,5,0,0,1,1.5-3.71,4.88,4.88,0,0,1,3.53-1.43,6.16,6.16,0,0,1,.71.07l0,10.05a3.22,3.22,0,0,1-.73.12,4.87,4.87,0,0,1-3.53-1.39A4.94,4.94,0,0,1,553.85,164.64Zm13.76,5v-10h0a5.43,5.43,0,0,1,.7-.07,4.87,4.87,0,0,1,3.52,1.42,5,5,0,0,1,1.51,3.72,4.94,4.94,0,0,1-1.5,3.71,4.87,4.87,0,0,1-3.53,1.39,2.29,2.29,0,0,1-.67-.11Z"/><path class="cls-2" d="M608.78,159.53a10.73,10.73,0,0,0-3.47-8.23,12.2,12.2,0,0,0-8.56-3.12h-7.68c-2.78,0-4.3,1.54-4.3,4.33V177a4.35,4.35,0,0,0,1.21,3.21,4.49,4.49,0,0,0,6,0,4.34,4.34,0,0,0,1.18-3.18v-6.23H597a11.62,11.62,0,0,0,8.25-3A10.62,10.62,0,0,0,608.78,159.53Zm-8.61,0a3.55,3.55,0,0,1-1,2.65,3.26,3.26,0,0,1-2.57,1h-3.51v-7.4h3.51a3.37,3.37,0,0,1,2.59,1A3.67,3.67,0,0,1,600.17,159.49Z"/><path class="cls-2" d="M626.23,181.35a15.06,15.06,0,0,0,11.49-4.82,16.83,16.83,0,0,0,4.36-11.77,16.57,16.57,0,0,0-4.45-11.68A15.86,15.86,0,0,0,614.8,153a17.93,17.93,0,0,0,0,23.55A15,15,0,0,0,626.23,181.35Zm-5.38-22.86a6.84,6.84,0,0,1,10.76,0,11.72,11.72,0,0,1,0,12.61,7,7,0,0,1-10.85,0,11.73,11.73,0,0,1,0-12.6Z"/><path class="cls-2" d="M649.64,181.35h8.94a11.31,11.31,0,0,0,7.9-2.7,9.94,9.94,0,0,0,3.09-7.78,8.16,8.16,0,0,0-2.15-5.59,8.49,8.49,0,0,0-3.16-2.25,7.5,7.5,0,0,0,2.75-6.18,8.16,8.16,0,0,0-2.69-6.31,9.08,9.08,0,0,0-6.39-2.35h-8.33a4.52,4.52,0,0,0-3.1,1.09,4.14,4.14,0,0,0-1.25,3.14v24.66a4.22,4.22,0,0,0,1.32,3.17A4.51,4.51,0,0,0,649.64,181.35Zm4-7.66v-5.44h3.68c3.24,0,3.68,1.28,3.68,2.54a2.61,2.61,0,0,1-.86,2.12,3.29,3.29,0,0,1-2.3.78Zm0-13.1v-4.73h2.47a2.89,2.89,0,0,1,1.89.58,1.9,1.9,0,0,1,.7,1.61,2.4,2.4,0,0,1-.66,1.87,2.64,2.64,0,0,1-1.93.67Z"/><path class="cls-2" d="M699.65,177.61a4.72,4.72,0,0,0-.1-.77,4.64,4.64,0,0,0-.3-1.13l-8.5-23.35c-1-2.73-2.86-4.17-5.51-4.17s-4.44,1.4-5.51,4.16L671,175.81l-.15.47a4.15,4.15,0,0,0-.17,1.15,3.62,3.62,0,0,0,1.27,2.83,4.29,4.29,0,0,0,2.86,1.08,3.93,3.93,0,0,0,4-2.91l1.1-3.37h10.73l1.1,3.4a3.94,3.94,0,0,0,4,2.87,3.88,3.88,0,0,0,2.71-1A3.57,3.57,0,0,0,699.65,177.61Zm-11.59-10.27h-5.72l2.89-8.73Z"/><path class="cls-2" d="M725.31,177v-24.5c0-2.79-1.51-4.32-4.26-4.32h-7.64c-7.67,0-11.73,3.73-11.73,10.78a8.4,8.4,0,0,0,2.63,6.34,10.67,10.67,0,0,0,4.54,2.45l-6.28,6.75a3.78,3.78,0,0,0-1.11,2.55,4.25,4.25,0,0,0,1.16,2.94,4,4,0,0,0,4.7,1,4.05,4.05,0,0,0,1.54-1.12L717,170v7a4.34,4.34,0,0,0,1.21,3.2,4.49,4.49,0,0,0,6,0A4.34,4.34,0,0,0,725.31,177Zm-14.2-20.19a3.3,3.3,0,0,1,2.3-.77H717v5.87h-3.55a3.15,3.15,0,0,1-2.28-.8,2.84,2.84,0,0,1-.84-2.16A2.72,2.72,0,0,1,711.11,156.82Z"/><path class="cls-2" d="M767.88,148.19a4.23,4.23,0,0,0-3.46,1.79l-12.5,16.27V152.48a4.29,4.29,0,0,0-1.21-3.18,4.52,4.52,0,0,0-6,0,4.28,4.28,0,0,0-1.18,3.16v24.58a4.29,4.29,0,0,0,1.21,3.18,4.36,4.36,0,0,0,6.43-.67l12.5-16.08v13.58a4.29,4.29,0,0,0,1.21,3.18,4.52,4.52,0,0,0,6,0,4.29,4.29,0,0,0,1.18-3.16V152.48a4.29,4.29,0,0,0-1.21-3.18A4.22,4.22,0,0,0,767.88,148.19Z"/><path class="cls-2" d="M510.57,185.86a4.33,4.33,0,0,0,1.18-3.18v-4.61a4.34,4.34,0,0,0-1.22-3.18,4.05,4.05,0,0,0-3-1.14h-.17V152.51a4.34,4.34,0,0,0-1.21-3.21,4.49,4.49,0,0,0-6,0,4.33,4.33,0,0,0-1.18,3.18v21.24H487.28V152.51a4.34,4.34,0,0,0-1.21-3.21,4.49,4.49,0,0,0-6,0,4.33,4.33,0,0,0-1.18,3.18V177a4.35,4.35,0,0,0,1.22,3.18,4,4,0,0,0,2.95,1.14h20.3v1.33a4.34,4.34,0,0,0,1.21,3.21,4.49,4.49,0,0,0,6,0Z"/></svg>